<svg width="182" height="37" viewBox="0 0 182 37" fill="none" xmlns="http://www.w3.org/2000/svg">
<circle opacity="0.2" cx="16" cy="18.5" r="15" stroke="#BAE2CF" stroke-width="2"/>
<circle opacity="0.5" cx="16" cy="18.4997" r="9.66667" stroke="#75C5A0" stroke-width="2"/>
<circle cx="16" cy="18.5003" r="5.33333" fill="#52B788"/>
<line x1="16" y1="17.0858" x2="25.8995" y2="7.18629" stroke="#52B788" stroke-width="2" stroke-linecap="round"/>
<path d="M47.56 29.308C45.4133 29.308 43.7053 28.7293 42.436 27.572C41.1853 26.396 40.56 24.8187 40.56 22.84H44.76C44.76 23.6987 45.012 24.3893 45.516 24.912C46.02 25.416 46.7013 25.668 47.56 25.668C48.4187 25.668 49.1 25.4253 49.604 24.94C50.108 24.436 50.36 23.7547 50.36 22.896V12.48H45.74V8.56H54.56V22.896C54.56 24.8747 53.9347 26.4427 52.684 27.6C51.4333 28.7387 49.7253 29.308 47.56 29.308ZM65.1891 29.28C63.8264 29.28 62.6411 29.028 61.6331 28.524C60.6251 28.0013 59.8411 27.2827 59.2811 26.368C58.7397 25.4347 58.4691 24.352 58.4691 23.12V14.44C58.4691 13.208 58.7397 12.1347 59.2811 11.22C59.8411 10.2867 60.6251 9.568 61.6331 9.064C62.6411 8.54133 63.8264 8.28 65.1891 8.28C66.5704 8.28 67.7557 8.54133 68.7451 9.064C69.7531 9.568 70.5277 10.2867 71.0691 11.22C71.6291 12.1347 71.9091 13.208 71.9091 14.44V23.12C71.9091 24.352 71.6291 25.4347 71.0691 26.368C70.5277 27.2827 69.7531 28.0013 68.7451 28.524C67.7557 29.028 66.5704 29.28 65.1891 29.28ZM65.1891 25.64C66.0291 25.64 66.6544 25.4253 67.0651 24.996C67.4944 24.548 67.7091 23.9227 67.7091 23.12V14.44C67.7091 13.6187 67.5037 12.9933 67.0931 12.564C66.6824 12.1347 66.0477 11.92 65.1891 11.92C64.3304 11.92 63.6957 12.1347 63.2851 12.564C62.8744 12.9933 62.6691 13.6187 62.6691 14.44V23.12C62.6691 23.9227 62.8744 24.548 63.2851 24.996C63.7144 25.4253 64.3491 25.64 65.1891 25.64ZM75.4261 29V8.56H82.0061C84.0781 8.56 85.7301 9.036 86.9621 9.988C88.1941 10.9213 88.8101 12.1907 88.8101 13.796C88.8101 14.692 88.5955 15.476 88.1661 16.148C87.7555 16.82 87.1955 17.3427 86.4861 17.716C85.7955 18.0893 85.0395 18.276 84.2181 18.276V18.36C85.1328 18.3413 85.9635 18.5093 86.7101 18.864C87.4755 19.2187 88.0915 19.7507 88.5581 20.46C89.0248 21.1693 89.2581 22.0467 89.2581 23.092C89.2581 24.2867 88.9688 25.332 88.3901 26.228C87.8301 27.1053 87.0275 27.7867 85.9821 28.272C84.9368 28.7573 83.6955 29 82.2581 29H75.4261ZM79.4861 25.612H82.0901C83.0048 25.612 83.7235 25.3693 84.2461 24.884C84.7688 24.3987 85.0301 23.7267 85.0301 22.868C85.0301 22.0093 84.7688 21.3373 84.2461 20.852C83.7235 20.348 83.0048 20.096 82.0901 20.096H79.4861V25.612ZM79.4861 16.792H81.9501C82.7715 16.792 83.4155 16.5773 83.8821 16.148C84.3488 15.7 84.5821 15.1027 84.5821 14.356C84.5821 13.5907 84.3488 13.0027 83.8821 12.592C83.4155 12.1627 82.7715 11.948 81.9501 11.948H79.4861V16.792ZM98.8962 29V8.56H105.476C106.932 8.56 108.192 8.812 109.256 9.316C110.32 9.82 111.142 10.5387 111.72 11.472C112.318 12.4053 112.616 13.5067 112.616 14.776C112.616 16.1013 112.29 17.2867 111.636 18.332C111.002 19.3773 110.134 20.1333 109.032 20.6L112.896 29H108.332L105.028 21.272H103.068V29H98.8962ZM103.068 17.632H105.476C106.41 17.632 107.128 17.3987 107.632 16.932C108.155 16.4653 108.416 15.812 108.416 14.972C108.416 14.0947 108.155 13.4133 107.632 12.928C107.128 12.4427 106.41 12.2 105.476 12.2H103.068V17.632ZM114.565 29L119.577 8.56H124.897L129.965 29H125.681L124.701 24.38H119.829L118.849 29H114.565ZM120.529 21.02H123.973L122.993 16.092C122.863 15.3827 122.723 14.6827 122.573 13.992C122.443 13.2827 122.34 12.732 122.265 12.34C122.191 12.732 122.088 13.2733 121.957 13.964C121.845 14.6547 121.715 15.3547 121.565 16.064L120.529 21.02ZM132.418 29V8.56H139.054C140.473 8.56 141.705 8.83067 142.75 9.372C143.814 9.91333 144.636 10.6787 145.214 11.668C145.812 12.6387 146.11 13.7867 146.11 15.112V22.42C146.11 23.7267 145.812 24.8747 145.214 25.864C144.636 26.8533 143.814 27.628 142.75 28.188C141.705 28.7293 140.473 29 139.054 29H132.418ZM136.618 25.08H139.054C139.913 25.08 140.604 24.8373 141.126 24.352C141.649 23.8667 141.91 23.2227 141.91 22.42V15.112C141.91 14.328 141.649 13.6933 141.126 13.208C140.604 12.7227 139.913 12.48 139.054 12.48H136.618V25.08ZM148.143 29L153.155 8.56H158.475L163.543 29H159.259L158.279 24.38H153.407L152.427 29H148.143ZM154.107 21.02H157.551L156.571 16.092C156.441 15.3827 156.301 14.6827 156.151 13.992C156.021 13.2827 155.918 12.732 155.843 12.34C155.769 12.732 155.666 13.2733 155.535 13.964C155.423 14.6547 155.293 15.3547 155.143 16.064L154.107 21.02ZM166.052 29V8.56H172.632C174.088 8.56 175.348 8.812 176.412 9.316C177.476 9.82 178.298 10.5387 178.876 11.472C179.474 12.4053 179.772 13.5067 179.772 14.776C179.772 16.1013 179.446 17.2867 178.792 18.332C178.158 19.3773 177.29 20.1333 176.188 20.6L180.052 29H175.488L172.184 21.272H170.224V29H166.052ZM170.224 17.632H172.632C173.566 17.632 174.284 17.3987 174.788 16.932C175.311 16.4653 175.572 15.812 175.572 14.972C175.572 14.0947 175.311 13.4133 174.788 12.928C174.284 12.4427 173.566 12.2 172.632 12.2H170.224V17.632Z" fill="#52B788"/>
</svg>
